. 
 
http://www.torrenting.com          :     Once & For all ;)


               www . Torrenting . Com 

(((((((((((((= Enjoy No RAR releases =))))))))))))))))))))


...................................NFO:....................................

.
***********************************************************************************************
                                        General
***********************************************************************************************

omplete name                     : Dream House 2011 R5 LiNE XVID -SCR0N.avi
Format                           : AVI
Format/Info                      : Audio Video Interleave
File size                        : 717 MiB
Duration                         : 1h 27mn
Overall bit rate                 : 1 149 Kbps


***********************************************************************************************
                                         Video
***********************************************************************************************

ID                               : 0
Format                           : MPEG-4 Visual
Format profile                   : Advanced Simple@L5
Format settings, BVOP            : 2
Format settings, QPel            : No
Format settings, GMC             : No warppoints
Format settings, Matrix          : Default (H.263)
Codec ID                         : XVID
Codec ID/Hint                    : XviD
Duration                         : 1h 27mn
Bit rate                         : 887 Kbps
Width                            : 640 pixels
Height                           : 272 pixels
Display aspect ratio             : 2.35:1
Frame rate                       : 25.000 fps
Color space                      : YUV
Chroma subsampling               : 4:2:0
Bit depth                        : 8 bits
Scan type                        : Progressive
Compression mode                 : Lossy
Bits/(Pixel*Frame)               : 0.204
Stream size                      : 553 MiB (77%)


***********************************************************************************************
                                         Audio
***********************************************************************************************

ID                               : 1
Format                           : MPEG Audio
Format version                   : Version 1
Format profile                   : Layer 3
Mode                             : Joint stereo
Codec ID                         : 55
Codec ID/Hint                    : MP3
Duration                         : 1h 27mn
Bit rate mode                    : Constant
Bit rate                         : 256 Kbps
Channel(s)                       : 2 channels
Sampling rate                    : 44.1 KHz
Compression mode                 : Lossy
Stream size                      : 160 MiB (22%)
Alignment                        : Aligned on interleaves
Interleave, duration             : 160 ms (4.00 video frames)
Interleave, preload duration     : 208 ms



IMDB : http://www.imdb.com/title/tt1462041/



Subtitles:

None included


 
SOURCE:

Video : dvd9-russian
Audio : absurdity audio resynced



SCR0N is looking for silver supplier,cammers,syncers,Audio and anymore stuff.....

If yall got anything to offer...holler us at scron@hushmail.com